<?xml version="1.0" encoding="UTF-8"?>
<svg id="_图层_1" data-name="图层 1" xmlns="http://www.w3.org/2000/svg" viewBox="0 0 139.56 139.56">
  <defs>
    <style>
      .cls-1 {
        fill-rule: evenodd;
      }

      .cls-1, .cls-2 {
        stroke-width: 0px;
      }

      .cls-1, .cls-2, .cls-3 {
        fill: red;
      }

      .cls-3 {
        stroke: #ff2d2c;
        stroke-miterlimit: 10;
        stroke-width: 1.29px;
      }
    </style>
  </defs>
  <path class="cls-2" d="m103.6,22.54l-2.75,4.4c13.74,9.95,21.88,25.88,21.91,42.84-.01,10.41-3.09,20.58-8.84,29.24l4.09,3.2c6.46-9.59,9.91-20.88,9.92-32.44-.02-18.75-9.08-36.34-24.33-47.24h0Z"/>
  <path class="cls-2" d="m35.95,22.57c-15.24,10.9-24.29,28.47-24.32,47.21.02,11.59,3.5,22.9,9.99,32.5l4.39-2.74c-5.98-8.77-9.19-19.14-9.21-29.76.03-16.95,8.17-32.87,21.89-42.82l-2.74-4.39Z"/>
  <path class="cls-3" d="m42.72,112.61c.29.18.55.42.74.71.15.22.24.48.27.74.02.25,0,.5-.09.74-.09.24-.2.47-.34.68l-.03.05-4.5,3.58c-.3.14-.61.24-.94.3-.35.07-.71.1-1.08.1-.37,0-.73-.05-1.09-.14-.34-.08-.67-.23-.96-.42l-4.05-2.71c-.24-.16-.45-.37-.59-.62-.14-.24-.24-.5-.29-.78-.05-.26-.05-.53,0-.8.05-.26.15-.5.29-.72l4.52-3.6c.31-.13.64-.23.97-.28.36-.06.73-.09,1.1-.08.36,0,.73.05,1.08.14.32.07.63.2.9.39l4.08,2.73Zm-1.46,2.26c.1-.06.17-.14.23-.24.14-.2.17-.46.07-.68-.14-.28-.35-.52-.63-.68l-3.02-2.03c-.17-.11-.35-.2-.54-.26-.19-.07-.4-.11-.6-.12-.2-.01-.4,0-.59.05-.18.04-.35.11-.51.21l-3.58,2.84-.09.1-.05.07c-.14.22-.17.49-.07.73.11.29.3.53.56.7l3.02,2.02c.17.11.36.19.56.24.21.05.43.08.64.09.2,0,.4,0,.6-.04.15-.02.3-.09.42-.19l3.58-2.82Zm11.32,6.6l-.02.06-.14.14s-.07.06-.12.05h-.14l-1.88-.59c-.19-.06-.39-.09-.59-.09-.21,0-.42.03-.63.07-.2.04-.38.12-.56.21-.15.08-.28.19-.39.33l-.87,1.24-.05.12c-.03.11-.05.23-.03.35.01.13.05.26.11.38.07.13.17.25.28.34.14.11.29.2.47.25l3.53,1.1c.06.02.13.02.19,0,.06-.01.12-.03.18-.04l4.65-6.63c.05-.07.11-.12.19-.16.07-.04.16-.05.24-.03l1.29.4c.1.03.14.11.1.23-.02.07-.04.1-.05.11l-5.47,7.78c-.06.08-.15.14-.24.17-.08.05-.18.06-.27.04l-5.87-1.83c-.27-.08-.52-.22-.74-.4-.21-.16-.38-.37-.52-.6-.13-.22-.21-.47-.24-.72-.03-.25-.01-.51.06-.75l.07-.18,1.33-1.88c.19-.27.44-.5.73-.67.32-.2.67-.35,1.03-.47.37-.12.76-.2,1.14-.24.34-.04.69-.03,1.03.02l-.19-2.74s0-.03,0-.05c0-.02,0-.03,0-.05l.04-.1c.04-.06.1-.1.18-.11l1.63.52c.14.04.21.12.21.24l.31,4.18Zm15.46,2.18c.08,0,.15-.03.2-.09.05-.05.1-.11.14-.18l.55-1.51v-.07s0-.09-.03-.13c-.02-.04-.07-.05-.15-.06l-5.24-.23c-.08,0-.15-.02-.22-.05-.07-.03-.1-.07-.1-.12l.42-1.16c.04-.06.1-.11.18-.14.09-.04.18-.05.28-.05l7.05.31c.07,0,.13.04.17.1.04.06.06.13.06.21l-3.3,8.94c-.04.09-.11.17-.19.23-.07.07-.16.11-.26.11l-7.08-.31c-.2,0-.29-.07-.29-.19l.42-1.14c.03-.07.1-.12.18-.14.08-.03.17-.05.26-.05l5.24.23c.06,0,.13-.01.19-.04.06-.02.11-.05.16-.09l.94-2.55s.02-.06.03-.1c0-.02.01-.04.02-.06,0-.08-.05-.12-.17-.13l-5.3-.23c-.07,0-.15-.02-.21-.06-.06-.04-.09-.08-.09-.13l.42-1.14c.1-.14.27-.21.43-.19l5.3.23Zm10.4,3.91s-.03.07-.04.11v.04s.04.05.08.04l5.27-1.12c.07-.02.14-.02.21,0,.07.02.12.05.13.1l-.11,1.21c-.01.08-.06.14-.13.18-.08.06-.16.1-.26.12l-7.59,1.64c-.19.04-.3,0-.33-.11l.11-1.24s.04-.06.04-.1c.01-.05.03-.1.07-.15l6.23-7.87v-.1c0-.06-.06-.09-.15-.07l-5.1,1.1c-.07.02-.14.02-.21,0-.07-.01-.12-.05-.13-.09l.11-1.23c.02-.07.07-.14.13-.18.08-.06.16-.1.26-.12l7.59-1.64c.19-.04.3,0,.33.11l-.08.91c-.01.1-.06.2-.12.28l-6.32,8.18Zm25.55-16.49c.17-.14.29-.16.36-.06l.43,1.15c.02.08,0,.16-.04.22-.04.08-.1.15-.17.21l-1.42,1.13c-.18.14-.33.32-.45.52-.11.18-.2.38-.27.58-.06.18-.1.37-.11.56-.01.15,0,.3.05.44l.55,1.41.05.1s.01.03,0,.02l.08.11c.15.19.39.3.64.29.31-.01.61-.13.85-.34l2.89-2.31s.09-.1.11-.16c.02-.06.05-.11.06-.17l-2.88-7.57c-.03-.08-.04-.16-.03-.24,0-.08.05-.16.11-.22l1.06-.85c.09-.07.17-.05.25.05.04.05.06.09.06.1l3.39,8.89c.02.1.02.2,0,.29,0,.1-.05.19-.12.26l-4.8,3.83c-.22.18-.48.32-.75.4-.25.08-.51.11-.78.09-.25-.02-.5-.09-.73-.21-.23-.11-.43-.28-.59-.48l-.11-.16-.82-2.16c-.13-.34-.19-.7-.16-1.06.02-.41.1-.81.22-1.2.12-.4.29-.78.5-1.13.17-.31.4-.59.67-.82l1.9-1.53Z"/>
  <path class="cls-1" d="m65.08,23.22c.63-.29,1.03-.92,1.03-1.66,0-1-.79-1.92-2.13-1.92h-6.34v5.57h3.08v-1.8h1.01l.93,1.8h3.46l-1.03-2Zm-2.61-1.15h-1.76v-1.18h1.76c.32,0,.59.27.59.59s-.26.59-.59.59c0,0,0,0,0,0Zm5.57,3.15h6.8v-1.24h-3.72v-.82h3.72v-1.34h-3.72v-.82h3.72v-1.34h-6.8v5.57Zm11.98-5.57h-3.08v5.57h6.2v-1.24h-3.12v-4.33Zm7.26,0h-3.08v5.57h6.2v-1.24h-3.12v-4.33Zm6.11-5.08h-48.17v10.63h5.33v-6.68h42.83c1.09.02,1.99-.85,2.01-1.95.02-1.09-.85-1.99-1.95-2.01-.02,0-.04,0-.06,0h0Zm-5.92,2.61h-36.92v-1.26h36.92c.35,0,.63.27.64.62,0,.35-.27.63-.62.64,0,0-.02,0-.03,0Zm-35.14,8.05h3.08v-5.57h-3.08v5.57Zm39.35,0h3.08v-5.57h-3.08v5.57Z"/>
</svg>