<?xml version="1.0" encoding="UTF-8"?>
<svg id="_图层_1" data-name="图层 1" xmlns="http://www.w3.org/2000/svg" viewBox="0 0 139.56 139.56">
  <defs>
    <style>
      .cls-1 {
        stroke-width: 0px;
      }
    </style>
  </defs>
  <path class="cls-1" d="m69.78,37.47c-17.84,0-32.3,14.46-32.3,32.3s14.46,32.3,32.3,32.3,32.3-14.46,32.3-32.3-14.46-32.3-32.3-32.3Zm-2.33,4.64v16.29c-.85.18-1.69.45-2.48.81l-9.57-13.17c3.66-2.22,7.78-3.56,12.05-3.93h0Zm4.65,0c4.26.36,8.39,1.71,12.04,3.93l-9.56,13.16c-.79-.36-1.63-.64-2.48-.82v-16.27h0Zm15.82,6.65c3.24,2.8,5.78,6.31,7.44,10.26l-15.48,5.03c-.43-.76-.94-1.47-1.53-2.11l9.57-13.18h0Zm-36.28.02l9.56,13.16c-.59.64-1.11,1.35-1.54,2.11l-15.5-5.04c1.67-3.94,4.23-7.45,7.47-10.24h0Zm18.13,13.25c4.28,0,7.75,3.47,7.75,7.75s-3.47,7.75-7.75,7.75h0c-4.28,0-7.75-3.47-7.75-7.75h0c0-4.28,3.47-7.75,7.75-7.75Zm-27.02,1.42l15.47,5.03c-.05.43-.08.87-.08,1.31,0,.44.03.87.09,1.3l-15.47,5.03c-.5-2.07-.75-4.2-.77-6.33,0-2.13.27-4.26.76-6.33h0Zm54.04,0c.5,2.07.75,4.2.77,6.33,0,2.13-.27,4.26-.76,6.33l-15.47-5.03c.05-.43.08-.87.08-1.31,0-.44-.03-.87-.09-1.3l15.47-5.03h0Zm-37.12,12.06c.43.76.94,1.47,1.53,2.11l-9.57,13.18c-3.24-2.8-5.78-6.31-7.44-10.26l15.48-5.03h0Zm20.22,0l15.5,5.04c-1.67,3.94-4.23,7.45-7.47,10.24l-9.56-13.16c.59-.64,1.11-1.35,1.54-2.11h0Zm-5.3,4.84l9.57,13.17c-3.66,2.22-7.78,3.56-12.05,3.93v-16.29c.85-.18,1.69-.45,2.48-.81h0Zm-9.62,0c.79.37,1.63.64,2.48.82v16.27c-4.26-.36-8.39-1.71-12.05-3.93l9.56-13.16h0Z"/>
</svg>