<?xml version="1.0" encoding="UTF-8"?>
<svg id="_图层_1" data-name="图层 1" xmlns="http://www.w3.org/2000/svg" viewBox="0 0 289.33 278.33">
  <defs>
    <style>
      .cls-1 {
        fill: #fff;
        stroke-width: 0px;
      }
    </style>
  </defs>
  <g id="_表情-开心" data-name="表情-开心">
    <path class="cls-1" d="m196.22,128.94c-12.23-6.69-18.14-6.61-30.9,0-1.33.69-2.62,1.55-3.66.83-.15-.11-.29-.21-.44-.32-1.03-.71-.94-2.64.39-4.04,10.35-10.94,27.95-10.94,38.3,0,1.33,1.4,1.42,3.33.39,4.04-.15.11-.29.21-.44.32-1.04.72-2.62.25-3.66-.83Z"/>
    <path class="cls-1" d="m121.1,128.94c-12.23-6.69-18.14-6.61-30.9,0-1.33.69-2.62,1.55-3.66.83-.15-.11-.29-.21-.44-.32-1.03-.71-.94-2.64.39-4.04,10.35-10.94,27.95-10.94,38.3,0,1.33,1.4,1.42,3.33.39,4.04-.15.11-.29.21-.44.32-1.04.72-2.62.25-3.66-.83Z"/>
  </g>
</svg>