<?xml version="1.0" encoding="UTF-8"?>
<svg id="_图层_1" data-name="图层 1" xmlns="http://www.w3.org/2000/svg" viewBox="0 0 289.33 278.33">
  <defs>
    <style>
      .cls-1 {
        fill: #fff;
        stroke-width: 0px;
      }
    </style>
  </defs>
  <g id="_表情-犯困" data-name="表情-犯困">
    <path class="cls-1" d="m120.31,124.59c-7.73,10.59-17.02,12.82-30.21,6.51-1.35-.65-2.89-.96-3.75-.04-.12.13-.24.27-.36.4-.86.91-.36,2.78,1.23,3.87,12.42,8.51,29.63,4.8,37.44-8.07,1-1.65.69-3.56-.47-4.03-.16-.07-.33-.14-.49-.22-1.16-.48-2.61.31-3.4,1.58Z"/>
    <path class="cls-1" d="m196.54,131.55c-11.41,6.46-20.79,4.65-30.2-6.53-.97-1.15-2.23-2.07-3.4-1.59-.16.07-.33.14-.49.22-1.16.48-1.48,2.38-.47,4.03,7.81,12.88,25.01,16.6,37.44,8.09,1.59-1.09,2.1-2.96,1.23-3.87-.12-.13-.24-.27-.36-.4-.86-.92-2.51-.8-3.75.04Z"/>
  </g>
</svg>