<?xml version="1.0" encoding="UTF-8"?>
<svg id="_图层_1" data-name="图层 1" xmlns="http://www.w3.org/2000/svg" viewBox="0 0 289.33333 278.33333">
  <defs>
    <style>
      .cls-1 {
        fill: #e60012;
        stroke-width: 0px;
      }
    </style>
  </defs>
  <g id="_表情-花痴" data-name="表情-花痴">
    <path class="cls-1" d="m103.87676,146.88151l-6.41016-4.14453c-14.15137-9.14941-14.15137-16.06641-14.15137-18.67041,0-6.52002,5.28564-11.80566,11.80566-11.80566,3.47314,0,6.5957,1.5,8.75586,3.88672,2.16064-2.38672,5.2832-3.88672,8.75635-3.88672,6.52002,0,11.80566,5.28564,11.80566,11.80566,0,2.604,0,9.521-14.15234,18.67041l-6.40967,4.14453Z"/>
    <path class="cls-1" d="m182.09942,147.10221l-6.40918-4.14355c-14.15234-9.14844-14.15234-16.06543-14.15234-18.66992,0-6.52002,5.28516-11.80566,11.80566-11.80566,3.47266,0,6.5957,1.49951,8.75586,3.88672,2.16016-2.38721,5.2832-3.88672,8.75586-3.88672,6.52051,0,11.80566,5.28564,11.80566,11.80566,0,2.60449,0,9.52148-14.15234,18.66992l-6.40918,4.14355Z"/>
  </g>
</svg>