<?xml version="1.0" encoding="UTF-8"?>
<svg id="_图层_1" data-name="图层 1" xmlns="http://www.w3.org/2000/svg" viewBox="0 0 289.33 278.33">
  <defs>
    <style>
      .cls-1 {
        fill: none;
        stroke: #fff;
        stroke-linecap: round;
        stroke-miterlimit: 10;
        stroke-width: 4.26px;
      }
    </style>
  </defs>
  <g id="_表情-晕" data-name="表情-晕">
    <path class="cls-1" d="m97.24,145.71c-9.73-5.12-11.65-19.17-2.94-27.11,6.44-5.87,16.59-4.88,22.25,1.75,4.53,5.3,3.9,13.27-1.4,17.8-4.24,3.62-10.62,3.12-14.24-1.12-2.9-3.39-2.5-8.49.89-11.39,2.71-2.32,6.79-2,9.11.71"/>
    <path class="cls-1" d="m188.74,145.49c9.73-5.12,11.65-19.17,2.94-27.11-6.44-5.87-16.59-4.88-22.25,1.75-4.53,5.3-3.9,13.27,1.4,17.8,4.24,3.62,10.62,3.12,14.24-1.12,2.9-3.39,2.5-8.49-.89-11.39-2.71-2.32-6.79-2-9.11.71"/>
  </g>
</svg>