<?xml version="1.0" encoding="UTF-8"?>
<svg id="_图层_1" data-name="图层 1" xmlns="http://www.w3.org/2000/svg" viewBox="0 0 289.33 278.33">
  <defs>
    <style>
      .cls-1 {
        fill: gold;
        stroke-width: 0px;
      }
    </style>
  </defs>
  <g id="_表情-财迷" data-name="表情-财迷">
    <g>
      <path class="cls-1" d="m110.61,126.43c-1.55-1.54-4.01-2.53-6.79-2.53s-5.32,1.03-6.87,2.61c-7.09-2.04-12.13-5.75-12.13,1.22,0,9.02,8.43,16.33,18.83,16.33s18.83-7.31,18.83-16.33c0-6.89-4.92-3.35-11.88-1.3Z"/>
      <g>
        <path class="cls-1" d="m96.57,116.34h.3c.53,0,.96.43.96.96v3.25c0,.53-.43.96-.96.96h-.3c-.53,0-.96-.43-.96-.96v-3.25c0-.53.43-.96.96-.96Z" transform="translate(-56.57 118.29) rotate(-50.64)"/>
        <path class="cls-1" d="m101.07,116.73h3.9c.62,0,1.13.5,1.13,1.13v.08c0,.62-.5,1.13-1.13,1.13h-3.9c-.62,0-1.13-.51-1.13-1.13v-.08c0-.62.51-1.13,1.13-1.13Z" transform="translate(-26.65 205.64) rotate(-82.94)"/>
        <path class="cls-1" d="m110.23,115.19c-.57-.33-1.31-.13-1.64.44l-2.47,4.27c-.33.57-.13,1.31.44,1.64h0c.57.33,1.31.13,1.64-.44l2.47-4.27c.33-.57.13-1.31-.44-1.64Z"/>
      </g>
    </g>
    <g>
      <path class="cls-1" d="m189.28,126.43c-1.55-1.54-4.01-2.53-6.79-2.53s-5.32,1.03-6.87,2.61c-7.09-2.04-12.13-5.75-12.13,1.22,0,9.02,8.43,16.33,18.83,16.33s18.83-7.31,18.83-16.33c0-6.89-4.92-3.35-11.88-1.3Z"/>
      <g>
        <path class="cls-1" d="m175.24,116.34h.3c.53,0,.96.43.96.96v3.25c0,.53-.43.96-.96.96h-.3c-.53,0-.96-.43-.96-.96v-3.25c0-.53.43-.96.96-.96Z" transform="translate(-27.79 179.11) rotate(-50.64)"/>
        <path class="cls-1" d="m179.73,116.73h3.9c.62,0,1.13.5,1.13,1.13v.08c0,.62-.5,1.13-1.13,1.13h-3.9c-.62,0-1.13-.51-1.13-1.13v-.08c0-.62.51-1.13,1.13-1.13Z" transform="translate(42.35 283.71) rotate(-82.94)"/>
        <path class="cls-1" d="m188.89,115.19c-.57-.33-1.31-.13-1.64.44l-2.47,4.27c-.33.57-.13,1.31.44,1.64h0c.57.33,1.31.13,1.64-.44l2.47-4.27c.33-.57.13-1.31-.44-1.64Z"/>
      </g>
    </g>
  </g>
</svg>